<svg width="798" height="156" viewBox="0 0 798 156" fill="none" xmlns="http://www.w3.org/2000/svg">
<g filter="url(#filter0_d_3_3)">
<path d="M76.425 53.775V57H49.65L38.175 20.55L26.775 57H0V53.775H16.95L-0.225 4.575H12.45L22.8 34.725L32.1 4.575H44.325L53.55 34.725L63.975 4.575H76.65L59.475 53.775H76.425ZM82.8416 53.775V4.575H120.642V15H94.5416V25.8H118.017V35.775H94.5416V46.65H121.467V53.775H128.742V57H75.5666V53.775H82.8416ZM178.414 53.775V57H124.639V53.775H131.914V4.575H152.314C155.864 4.575 158.914 5 161.464 5.85C164.064 6.7 166.014 7.85 167.314 9.3C169.664 12 170.839 15.05 170.839 18.45C170.839 22.55 169.514 25.6 166.864 27.6C165.964 28.3 165.339 28.75 164.989 28.95C164.639 29.1 164.014 29.375 163.114 29.775C166.364 30.475 168.939 31.95 170.839 34.2C172.789 36.4 173.764 39.15 173.764 42.45C173.764 47.4 171.814 51.175 167.914 53.775H178.414ZM143.614 47.1H151.639C154.989 47.1 157.489 46.7 159.139 45.9C160.839 45.05 161.689 43.425 161.689 41.025C161.689 38.575 160.789 36.975 158.989 36.225C157.239 35.425 154.414 35.025 150.514 35.025H143.614V47.1ZM143.614 25.8H149.164C152.414 25.8 154.814 25.45 156.364 24.75C157.964 24.05 158.764 22.55 158.764 20.25C158.764 17.9 158.039 16.35 156.589 15.6C155.139 14.85 152.689 14.475 149.239 14.475H143.614V25.8ZM198.218 53.775V57H178.418V53.775H198.218ZM256.843 53.775V57H197.368V53.775H204.643V4.575H223.168C232.518 4.575 239.693 6.875 244.693 11.475C249.693 16.025 252.193 22.45 252.193 30.75C252.193 41.95 247.843 49.625 239.143 53.775H256.843ZM223.768 46.65C229.118 46.65 233.218 45.3 236.068 42.6C238.968 39.9 240.418 35.975 240.418 30.825C240.418 25.675 238.968 21.725 236.068 18.975C233.218 16.175 228.818 14.775 222.868 14.775H216.343V46.65H223.768ZM263.31 53.775V4.575H301.11V15H275.01V25.8H298.485V35.775H275.01V46.65H301.935V53.775H309.21V57H256.035V53.775H263.31ZM357.533 53.775V57H305.933V53.775H325.433L305.708 4.575H318.383L331.733 37.95L345.083 4.575H357.758L337.958 53.775H357.533ZM364.018 53.775V4.575H401.818V15H375.718V25.8H399.193V35.775H375.718V46.65H402.643V53.775H409.918V57H356.743V53.775H364.018ZM454.416 53.775V57H405.816V53.775H413.091V4.575H424.791V46.575H447.141V53.775H454.416ZM509.826 53.775V57H447.876V53.775H464.601C460.501 51.425 457.251 48.2 454.851 44.1C452.501 40 451.326 35.45 451.326 30.45C451.326 22.75 453.976 16.325 459.276 11.175C464.576 5.975 471.101 3.375 478.851 3.375C486.601 3.375 493.126 5.975 498.426 11.175C503.726 16.325 506.376 22.75 506.376 30.45C506.376 35.45 505.176 40 502.776 44.1C500.376 48.2 497.151 51.425 493.101 53.775H509.826ZM494.451 30.525C494.451 25.825 492.951 21.825 489.951 18.525C486.951 15.225 483.251 13.575 478.851 13.575C474.501 13.575 470.826 15.225 467.826 18.525C464.826 21.825 463.326 25.825 463.326 30.525C463.326 35.175 464.826 39.15 467.826 42.45C470.826 45.7 474.501 47.325 478.851 47.325C483.251 47.325 486.951 45.7 489.951 42.45C492.951 39.15 494.451 35.175 494.451 30.525ZM560.614 53.775V57H509.014V53.775H516.289V4.575H534.814C542.864 4.575 548.714 6.15 552.364 9.3C556.064 12.4 557.914 17.2 557.914 23.7C557.914 30.15 556.014 34.875 552.214 37.875C548.464 40.875 542.714 42.375 534.964 42.375H527.989V53.775H560.614ZM535.864 32.25C539.764 32.25 542.414 31.475 543.814 29.925C545.214 28.325 545.914 26.025 545.914 23.025C545.914 19.975 544.989 17.825 543.139 16.575C541.339 15.275 538.514 14.625 534.664 14.625H527.989V32.25H535.864ZM613.996 24L599.821 52.65H592.846L578.746 24V57H559.771V53.775H567.046V4.575H582.871L596.371 33.375L609.946 4.575H625.696V53.775H632.971V57H613.996V24ZM638.603 53.775V4.575H676.403V15H650.303V25.8H673.778V35.775H650.303V46.65H677.228V53.775H684.503V57H631.328V53.775H638.603ZM687.676 53.775V4.575H698.626L724.351 38.325V4.575H736.051V53.775H743.326V57H724.351L699.376 24.15V57H680.401V53.775H687.676ZM788.129 53.775V57H742.529V53.775H759.479V14.7H744.629V4.575H786.029V14.7H771.179V53.775H788.129ZM63.525 143.775V147H43.8L38.925 135.675H16.95L12.075 147H-7.65V143.775H0.975L22.275 94.575H33.6L54.825 143.775H63.525ZM27.975 110.175L21.375 125.4H34.5L27.975 110.175ZM62.3338 143.775V94.575H73.2838L99.0088 128.325V94.575H110.709V143.775H117.984V147H99.0088L74.0338 114.15V147H55.0588V143.775H62.3338ZM175.838 143.775V147H116.362V143.775H123.638V94.575H142.163C151.513 94.575 158.688 96.875 163.688 101.475C168.688 106.025 171.188 112.45 171.188 120.75C171.188 131.95 166.838 139.625 158.138 143.775H175.838ZM142.763 136.65C148.113 136.65 152.213 135.3 155.062 132.6C157.963 129.9 159.413 125.975 159.413 120.825C159.413 115.675 157.963 111.725 155.062 108.975C152.213 106.175 147.813 104.775 141.863 104.775H135.338V136.65H142.763ZM195.654 143.775V147H175.854V143.775H195.654ZM243.405 143.775V147H194.805V143.775H202.08V94.575H213.78V136.575H236.13V143.775H243.405ZM262.857 143.775V147H238.257V143.775H244.707V94.575H256.407V143.775H262.857ZM308.766 143.775V147H262.866V143.775H269.316V94.575H305.316V104.85H281.016V116.175H304.116V126.45H281.016V143.775H308.766ZM315.239 143.775V94.575H353.039V105H326.939V115.8H350.414V125.775H326.939V136.65H353.864V143.775H361.139V147H307.964V143.775H315.239ZM377.661 143.775V147H357.861V143.775H377.661ZM430.587 143.775V147H376.812V143.775H384.087V94.575H404.487C408.037 94.575 411.087 95 413.637 95.85C416.237 96.7 418.187 97.85 419.487 99.3C421.837 102 423.012 105.05 423.012 108.45C423.012 112.55 421.687 115.6 419.037 117.6C418.137 118.3 417.512 118.75 417.162 118.95C416.812 119.1 416.187 119.375 415.287 119.775C418.537 120.475 421.112 121.95 423.012 124.2C424.962 126.4 425.937 129.15 425.937 132.45C425.937 137.4 423.987 141.175 420.087 143.775H430.587ZM395.787 137.1H403.812C407.162 137.1 409.662 136.7 411.312 135.9C413.012 135.05 413.862 133.425 413.862 131.025C413.862 128.575 412.962 126.975 411.162 126.225C409.412 125.425 406.587 125.025 402.687 125.025H395.787V137.1ZM395.787 115.8H401.337C404.587 115.8 406.987 115.45 408.537 114.75C410.137 114.05 410.937 112.55 410.937 110.25C410.937 107.9 410.212 106.35 408.762 105.6C407.312 104.85 404.862 104.475 401.412 104.475H395.787V115.8ZM478.366 143.775V147H429.766V143.775H437.041V94.575H448.741V136.575H471.091V143.775H478.366ZM533.776 143.775V147H471.826V143.775H488.551C484.451 141.425 481.201 138.2 478.801 134.1C476.451 130 475.276 125.45 475.276 120.45C475.276 112.75 477.926 106.325 483.226 101.175C488.526 95.975 495.051 93.375 502.801 93.375C510.551 93.375 517.076 95.975 522.376 101.175C527.676 106.325 530.326 112.75 530.326 120.45C530.326 125.45 529.126 130 526.726 134.1C524.326 138.2 521.101 141.425 517.051 143.775H533.776ZM518.401 120.525C518.401 115.825 516.901 111.825 513.901 108.525C510.901 105.225 507.201 103.575 502.801 103.575C498.451 103.575 494.776 105.225 491.776 108.525C488.776 111.825 487.276 115.825 487.276 120.525C487.276 125.175 488.776 129.15 491.776 132.45C494.776 135.7 498.451 137.325 502.801 137.325C507.201 137.325 510.901 135.7 513.901 132.45C516.901 129.15 518.401 125.175 518.401 120.525ZM590.039 143.775V147H533.789V143.775H550.064C546.064 141.425 542.914 138.25 540.614 134.25C538.364 130.2 537.239 125.625 537.239 120.525C537.239 112.825 539.889 106.375 545.189 101.175C550.539 95.975 556.964 93.375 564.464 93.375C572.014 93.375 578.564 95.85 584.114 100.8L578.039 109.575C575.689 107.525 573.514 106.125 571.514 105.375C569.564 104.575 567.439 104.175 565.139 104.175C560.689 104.175 556.939 105.7 553.889 108.75C550.839 111.75 549.314 115.725 549.314 120.675C549.314 125.625 550.764 129.6 553.664 132.6C556.614 135.55 560.114 137.025 564.164 137.025C568.214 137.025 571.589 136.25 574.289 134.7V120.3H586.064V138.9C584.364 140.8 582.339 142.425 579.989 143.775H590.039Z" fill="#DADADA"/>
</g>
<defs>
<filter id="filter0_d_3_3" x="-10.65" y="0.375" width="807.779" height="155.625" filterUnits="userSpaceOnUse" color-interpolation-filters="sRGB">
<feFlood flood-opacity="0" result="BackgroundImageFix"/>
<feColorMatrix in="SourceAlpha" type="matrix" values="0 0 0 0 0 0 0 0 0 0 0 0 0 0 0 0 0 0 127 0" result="hardAlpha"/>
<feOffset dx="3" dy="3"/>
<feGaussianBlur stdDeviation="3"/>
<feComposite in2="hardAlpha" operator="out"/>
<feColorMatrix type="matrix" values="0 0 0 0 0.0705882 0 0 0 0 0.0705882 0 0 0 0 0.0705882 0 0 0 1 0"/>
<feBlend mode="normal" in2="BackgroundImageFix" result="effect1_dropShadow_3_3"/>
<feBlend mode="normal" in="SourceGraphic" in2="effect1_dropShadow_3_3" result="shape"/>
</filter>
</defs>
</svg>
